<?xml version="1.0" encoding="UTF-8" standalone="no"?>
<svg
   xmlns:dc="http://purl.org/dc/elements/1.1/"
   xmlns:cc="http://creativecommons.org/ns#"
   xmlns:rdf="http://www.w3.org/1999/02/22-rdf-syntax-ns#"
   xmlns:svg="http://www.w3.org/2000/svg"
   xmlns="http://www.w3.org/2000/svg"
   id="svg5570"
   version="1.1"
   viewBox="0 0 512 512"
   height="512mm"
   width="512mm">
  <defs
     id="defs5564">
    <clipPath
       id="clipPath416"
       clipPathUnits="userSpaceOnUse">
      <path
         id="path414"
         d="m 106.521,505.844 h 53.4 v -53.401 h -53.4 z" />
    </clipPath>
    <clipPath
       id="clipPath432"
       clipPathUnits="userSpaceOnUse">
      <path
         id="path430"
         d="m 107.103,505.263 h 53.4 v -53.401 h -53.4 z" />
    </clipPath>
    <clipPath
       id="clipPath452"
       clipPathUnits="userSpaceOnUse">
      <path
         id="path450"
         d="m 121.394,490.97 h 53.401 v -53.4 h -53.401 z" />
    </clipPath>
    <clipPath
       id="clipPath468"
       clipPathUnits="userSpaceOnUse">
      <path
         id="path466"
         d="m 121.976,490.39 h 53.4 v -53.401 h -53.4 z" />
    </clipPath>
    <clipPath
       id="clipPath488"
       clipPathUnits="userSpaceOnUse">
      <path
         id="path486"
         d="M 252.477,497.736 H 303.71 V 458.461 H 252.477 Z" />
    </clipPath>
    <clipPath
       id="clipPath516"
       clipPathUnits="userSpaceOnUse">
      <path
         id="path514"
         d="m 260.136,464.691 h 34.022 v -18.162 h -34.022 z" />
    </clipPath>
    <clipPath
       id="clipPath1186"
       clipPathUnits="userSpaceOnUse">
      <path
         id="path1184"
         d="m 371.012,489.894 h 13.025 v -36.841 h -13.025 z" />
    </clipPath>
    <clipPath
       id="clipPath1238"
       clipPathUnits="userSpaceOnUse">
      <path
         id="path1236"
         d="m 416.701,489.894 h 13.026 v -36.841 h -13.026 z" />
    </clipPath>
    <clipPath
       id="clipPath1290"
       clipPathUnits="userSpaceOnUse">
      <path
         id="path1288"
         d="m 381.949,500.831 h 36.84 v -13.025 h -36.84 z" />
    </clipPath>
    <clipPath
       id="clipPath1342"
       clipPathUnits="userSpaceOnUse">
      <path
         id="path1340"
         d="m 381.949,455.141 h 36.84 v -13.025 h -36.84 z" />
    </clipPath>
    <clipPath
       id="clipPath1378"
       clipPathUnits="userSpaceOnUse">
      <path
         id="path1376"
         d="M 377.82,494.007 H 422.9 V 448.929 H 377.82 Z" />
    </clipPath>
    <clipPath
       id="clipPath1398"
       clipPathUnits="userSpaceOnUse">
      <path
         id="path1396"
         d="m 372.796,499.034 h 55.132 v -28.96 h -55.132 z" />
    </clipPath>
    <clipPath
       id="clipPath1422"
       clipPathUnits="userSpaceOnUse">
      <path
         id="path1420"
         d="m 390.837,480.992 h 19.048 v -10.918 h -19.048 z" />
    </clipPath>
    <clipPath
       id="clipPath2348"
       clipPathUnits="userSpaceOnUse">
      <path
         id="path2346"
         d="m 629.877,480.125 h 17.658 V 462.47 h -17.658 z" />
    </clipPath>
    <clipPath
       id="clipPath2364"
       clipPathUnits="userSpaceOnUse">
      <path
         id="path2362"
         d="m 645.464,464.54 h 17.654 v -17.656 h -17.654 z" />
    </clipPath>
    <clipPath
       id="clipPath2404"
       clipPathUnits="userSpaceOnUse">
      <path
         id="path2402"
         d="m 671.973,484.672 h 11.481 v -11.481 h -11.481 z" />
    </clipPath>
    <clipPath
       id="clipPath2420"
       clipPathUnits="userSpaceOnUse">
      <path
         id="path2418"
         d="m 682.108,494.806 h 11.481 v -11.479 h -11.481 z" />
    </clipPath>
    <clipPath
       id="clipPath2076"
       clipPathUnits="userSpaceOnUse">
      <path
         id="path2074"
         d="m 111.314,382.691 h 49.848 v -7.75 h -49.848 z" />
    </clipPath>
    <clipPath
       id="clipPath2096"
       clipPathUnits="userSpaceOnUse">
      <path
         id="path2094"
         d="m 107.858,373.707 h 56.759 v -3.637 h -56.759 z" />
    </clipPath>
    <clipPath
       id="clipPath2112"
       clipPathUnits="userSpaceOnUse">
      <path
         id="path2110"
         d="m 132.422,358.392 h 29.332 v -21.443 h -29.332 z" />
    </clipPath>
    <clipPath
       id="clipPath2140"
       clipPathUnits="userSpaceOnUse">
      <path
         id="path2138"
         d="m 140.822,357.173 h 19.79 v -19.789 h -19.79 z" />
    </clipPath>
    <clipPath
       id="clipPath2156"
       clipPathUnits="userSpaceOnUse">
      <path
         id="path2154"
         d="m 140.822,357.173 h 17.379 v -17.375 h -17.379 z" />
    </clipPath>
    <clipPath
       id="clipPath2176"
       clipPathUnits="userSpaceOnUse">
      <path
         id="path2174"
         d="m 145.11,344.851 h 3.8 v -3.797 h -3.8 z" />
    </clipPath>
    <clipPath
       id="clipPath2192"
       clipPathUnits="userSpaceOnUse">
      <path
         id="path2190"
         d="m 151.674,354.583 h 6.273 v -6.275 h -6.273 z" />
    </clipPath>
    <clipPath
       id="clipPath2448"
       clipPathUnits="userSpaceOnUse">
      <path
         id="path2446"
         d="m 242.236,390.165 h 56.261 v -4.573 h -56.261 z" />
    </clipPath>
    <clipPath
       id="clipPath2464"
       clipPathUnits="userSpaceOnUse">
      <path
         id="path2462"
         d="m 250.983,390.165 h 15.954 v -15.954 h -15.954 z" />
    </clipPath>
    <clipPath
       id="clipPath2478"
       clipPathUnits="userSpaceOnUse">
      <path
         id="path2476"
         d="m 289.59,390.165 h 8.907 v -15.954 h -8.907 z" />
    </clipPath>
    <clipPath
       id="clipPath2502"
       clipPathUnits="userSpaceOnUse">
      <path
         id="path2500"
         d="m 242.236,370.165 h 56.261 v -4.573 h -56.261 z" />
    </clipPath>
    <clipPath
       id="clipPath2518"
       clipPathUnits="userSpaceOnUse">
      <path
         id="path2516"
         d="m 250.983,370.165 h 15.954 v -15.954 h -15.954 z" />
    </clipPath>
    <clipPath
       id="clipPath2532"
       clipPathUnits="userSpaceOnUse">
      <path
         id="path2530"
         d="m 289.59,370.165 h 8.907 v -15.954 h -8.907 z" />
    </clipPath>
    <clipPath
       id="clipPath2556"
       clipPathUnits="userSpaceOnUse">
      <path
         id="path2554"
         d="m 242.236,350.165 h 56.261 v -4.573 h -56.261 z" />
    </clipPath>
    <clipPath
       id="clipPath2572"
       clipPathUnits="userSpaceOnUse">
      <path
         id="path2570"
         d="m 250.983,350.165 h 15.954 v -15.954 h -15.954 z" />
    </clipPath>
    <clipPath
       id="clipPath2586"
       clipPathUnits="userSpaceOnUse">
      <path
         id="path2584"
         d="m 289.59,350.165 h 8.907 v -15.954 h -8.907 z" />
    </clipPath>
    <clipPath
       id="clipPath2606"
       clipPathUnits="userSpaceOnUse">
      <path
         id="path2604"
         d="m 281.489,396.801 h 28.519 v -36.579 h -28.519 z" />
    </clipPath>
    <clipPath
       id="clipPath2622"
       clipPathUnits="userSpaceOnUse">
      <path
         id="path2620"
         d="m 283.593,399.946 h 12.931 v -7.461 h -12.931 z" />
    </clipPath>
    <clipPath
       id="clipPath2638"
       clipPathUnits="userSpaceOnUse">
      <path
         id="path2636"
         d="m 286.668,374.432 h 8.201 v -5.317 h -8.201 z" />
    </clipPath>
  </defs>
  <metadata
     id="metadata5567">
    <rdf:RDF>
      <cc:Work
         rdf:about="">
        <dc:format>image/svg+xml</dc:format>
        <dc:type
           rdf:resource="http://purl.org/dc/dcmitype/StillImage" />
        <dc:title></dc:title>
      </cc:Work>
    </rdf:RDF>
  </metadata>
  <g
     transform="translate(0,215)"
     id="layer1">
    <g
       style="stroke-width:0.05060491"
       id="g6171"
       transform="matrix(6.9712169,0,0,-6.9712169,-724.48669,3324.4963)">
      <g
         style="stroke-width:0.00266039"
         id="g6633"
         transform="matrix(0.96258838,0,0,0.96258838,-124.56512,119.65619)">
        <g
           style="stroke-width:0.00266039"
           id="g2430"
           transform="translate(294.9873,333.1782)">
          <path
             d="m 0,0 c 0,-2.041 -1.656,-3.695 -3.696,-3.695 h -42.729 c -2.04,0 -3.694,1.654 -3.694,3.695 v 50.658 c 0,2.041 1.654,3.697 3.694,3.697 H -3.696 C -1.656,54.355 0,52.699 0,50.658 Z"
             style="fill:#5a6271;fill-opacity:1;fill-rule:nonzero;stroke:none;stroke-width:0.00266039"
             id="path2432" />
        </g>
        <g
           style="stroke-width:0.00266039"
           id="g2434"
           transform="translate(298.4971,377.9087)">
          <path
             d="m 0,0 c 0,-2.041 -1.656,-3.697 -3.697,-3.697 h -48.869 c -2.04,0 -3.695,1.656 -3.695,3.697 v 8.561 c 0,2.041 1.655,3.695 3.695,3.695 H -3.697 C -1.656,12.256 0,10.602 0,8.561 Z"
             style="fill:#dce2e9;fill-opacity:1;fill-rule:nonzero;stroke:none;stroke-width:0.00266039"
             id="path2436" />
        </g>
        <g
           style="stroke-width:0.00266039"
           id="g2438"
           transform="translate(294.7998,375.0884)">
          <path
             d="m 0,0 h -48.869 c -2.04,0 -3.694,1.656 -3.694,3.697 V 2.82 c 0,-2.041 1.654,-3.697 3.694,-3.697 H 0 c 2.041,0 3.697,1.656 3.697,3.697 V 3.697 C 3.697,1.656 2.041,0 0,0"
             style="fill:#bfc8d5;fill-opacity:1;fill-rule:nonzero;stroke:none;stroke-width:0.00266039"
             id="path2440" />
        </g>
        <g
           style="stroke-width:0.00266039"
           id="g2442">
          <g
             style="stroke-width:0.00266039"
             id="g2444" />
          <g
             style="stroke-width:0.00266039"
             id="g2456">
            <g
               style="stroke-width:0.00266039"
               clip-path="url(#clipPath2448)"
               id="g2454">
              <g
                 style="stroke-width:0.00266039"
                 transform="translate(294.7998,390.1646)"
                 id="g2452">
                <path
                   d="m 0,0 h -48.869 c -2.04,0 -3.694,-1.654 -3.694,-3.695 v -0.877 c 0,2.041 1.654,3.695 3.694,3.695 H 0 c 2.041,0 3.697,-1.654 3.697,-3.695 v 0.877 C 3.697,-1.654 2.041,0 0,0"
                   style="fill:#dce2e9;fill-opacity:1;fill-rule:nonzero;stroke:none;stroke-width:0.00266039"
                   id="path2450" />
              </g>
            </g>
          </g>
        </g>
        <g
           style="stroke-width:0.00266039"
           id="g2458">
          <g
             style="stroke-width:0.00266039"
             id="g2460" />
          <g
             style="stroke-width:0.00266039"
             id="g2470">
            <g
               clip-path="url(#clipPath2464)"
               id="g2468"
               style="opacity:0.5;stroke-width:0.00266039">
              <path
                 d="m 250.983,374.211 h 15.954 v 15.953 h -15.954 z"
                 style="fill:#dce2e9;fill-opacity:1;fill-rule:nonzero;stroke:none;stroke-width:0.00266039"
                 id="path2466" />
            </g>
          </g>
        </g>
        <g
           style="stroke-width:0.00266039"
           id="g2472">
          <g
             style="stroke-width:0.00266039"
             id="g2474" />
          <g
             style="stroke-width:0.00266039"
             id="g2486">
            <g
               style="stroke-width:0.00266039"
               clip-path="url(#clipPath2478)"
               id="g2484">
              <g
                 style="stroke-width:0.00266039"
                 transform="translate(294.7998,390.1646)"
                 id="g2482">
                <path
                   d="M 0,0 H -5.21 V -15.953 H 0 c 2.041,0 3.697,1.656 3.697,3.697 v 8.561 C 3.697,-1.654 2.041,0 0,0"
                   style="fill:#dce2e9;fill-opacity:1;fill-rule:nonzero;stroke:none;stroke-width:0.00266039"
                   id="path2480" />
              </g>
            </g>
          </g>
        </g>
        <g
           style="stroke-width:0.00266039"
           id="g2488"
           transform="translate(298.4971,357.9087)">
          <path
             d="m 0,0 c 0,-2.041 -1.656,-3.697 -3.697,-3.697 h -48.869 c -2.04,0 -3.695,1.656 -3.695,3.697 v 8.561 c 0,2.041 1.655,3.695 3.695,3.695 H -3.697 C -1.656,12.256 0,10.602 0,8.561 Z"
             style="fill:#dce2e9;fill-opacity:1;fill-rule:nonzero;stroke:none;stroke-width:0.00266039"
             id="path2490" />
        </g>
        <g
           style="stroke-width:0.00266039"
           id="g2492"
           transform="translate(294.7998,355.0884)">
          <path
             d="m 0,0 h -48.869 c -2.04,0 -3.694,1.656 -3.694,3.697 V 2.82 c 0,-2.041 1.654,-3.697 3.694,-3.697 H 0 c 2.041,0 3.697,1.656 3.697,3.697 V 3.697 C 3.697,1.656 2.041,0 0,0"
             style="fill:#bfc8d5;fill-opacity:1;fill-rule:nonzero;stroke:none;stroke-width:0.00266039"
             id="path2494" />
        </g>
        <g
           style="stroke-width:0.00266039"
           id="g2496">
          <g
             style="stroke-width:0.00266039"
             id="g2498" />
          <g
             style="stroke-width:0.00266039"
             id="g2510">
            <g
               style="stroke-width:0.00266039"
               clip-path="url(#clipPath2502)"
               id="g2508">
              <g
                 style="stroke-width:0.00266039"
                 transform="translate(294.7998,370.1646)"
                 id="g2506">
                <path
                   d="m 0,0 h -48.869 c -2.04,0 -3.694,-1.654 -3.694,-3.695 v -0.877 c 0,2.041 1.654,3.695 3.694,3.695 H 0 c 2.041,0 3.697,-1.654 3.697,-3.695 v 0.877 C 3.697,-1.654 2.041,0 0,0"
                   style="fill:#dce2e9;fill-opacity:1;fill-rule:nonzero;stroke:none;stroke-width:0.00266039"
                   id="path2504" />
              </g>
            </g>
          </g>
        </g>
        <g
           style="stroke-width:0.00266039"
           id="g2512">
          <g
             style="stroke-width:0.00266039"
             id="g2514" />
          <g
             style="stroke-width:0.00266039"
             id="g2524">
            <g
               clip-path="url(#clipPath2518)"
               id="g2522"
               style="opacity:0.5;stroke-width:0.00266039">
              <path
                 d="m 250.983,354.211 h 15.954 v 15.953 h -15.954 z"
                 style="fill:#dce2e9;fill-opacity:1;fill-rule:nonzero;stroke:none;stroke-width:0.00266039"
                 id="path2520" />
            </g>
          </g>
        </g>
        <g
           style="stroke-width:0.00266039"
           id="g2526">
          <g
             style="stroke-width:0.00266039"
             id="g2528" />
          <g
             style="stroke-width:0.00266039"
             id="g2540">
            <g
               style="stroke-width:0.00266039"
               clip-path="url(#clipPath2532)"
               id="g2538">
              <g
                 style="stroke-width:0.00266039"
                 transform="translate(294.7998,370.1646)"
                 id="g2536">
                <path
                   d="M 0,0 H -5.21 V -15.953 H 0 c 2.041,0 3.697,1.656 3.697,3.697 v 8.561 C 3.697,-1.654 2.041,0 0,0"
                   style="fill:#dce2e9;fill-opacity:1;fill-rule:nonzero;stroke:none;stroke-width:0.00266039"
                   id="path2534" />
              </g>
            </g>
          </g>
        </g>
        <g
           style="stroke-width:0.00266039"
           id="g2542"
           transform="translate(298.4971,337.9087)">
          <path
             d="m 0,0 c 0,-2.041 -1.656,-3.697 -3.697,-3.697 h -48.869 c -2.04,0 -3.695,1.656 -3.695,3.697 v 8.561 c 0,2.041 1.655,3.695 3.695,3.695 H -3.697 C -1.656,12.256 0,10.602 0,8.561 Z"
             style="fill:#dce2e9;fill-opacity:1;fill-rule:nonzero;stroke:none;stroke-width:0.00266039"
             id="path2544" />
        </g>
        <g
           style="stroke-width:0.00266039"
           id="g2546"
           transform="translate(294.7998,335.0884)">
          <path
             d="m 0,0 h -48.869 c -2.04,0 -3.694,1.656 -3.694,3.697 V 2.82 c 0,-2.041 1.654,-3.697 3.694,-3.697 H 0 c 2.041,0 3.697,1.656 3.697,3.697 V 3.697 C 3.697,1.656 2.041,0 0,0"
             style="fill:#bfc8d5;fill-opacity:1;fill-rule:nonzero;stroke:none;stroke-width:0.00266039"
             id="path2548" />
        </g>
        <g
           style="stroke-width:0.00266039"
           id="g2550">
          <g
             style="stroke-width:0.00266039"
             id="g2552" />
          <g
             style="stroke-width:0.00266039"
             id="g2564">
            <g
               style="stroke-width:0.00266039"
               clip-path="url(#clipPath2556)"
               id="g2562">
              <g
                 style="stroke-width:0.00266039"
                 transform="translate(294.7998,350.1646)"
                 id="g2560">
                <path
                   d="m 0,0 h -48.869 c -2.04,0 -3.694,-1.654 -3.694,-3.695 v -0.877 c 0,2.041 1.654,3.695 3.694,3.695 H 0 c 2.041,0 3.697,-1.654 3.697,-3.695 v 0.877 C 3.697,-1.654 2.041,0 0,0"
                   style="fill:#dce2e9;fill-opacity:1;fill-rule:nonzero;stroke:none;stroke-width:0.00266039"
                   id="path2558" />
              </g>
            </g>
          </g>
        </g>
        <g
           style="stroke-width:0.00266039"
           id="g2566">
          <g
             style="stroke-width:0.00266039"
             id="g2568" />
          <g
             style="stroke-width:0.00266039"
             id="g2578">
            <g
               clip-path="url(#clipPath2572)"
               id="g2576"
               style="opacity:0.5;stroke-width:0.00266039">
              <path
                 d="m 250.983,334.211 h 15.954 v 15.953 h -15.954 z"
                 style="fill:#dce2e9;fill-opacity:1;fill-rule:nonzero;stroke:none;stroke-width:0.00266039"
                 id="path2574" />
            </g>
          </g>
        </g>
        <g
           style="stroke-width:0.00266039"
           id="g2580">
          <g
             style="stroke-width:0.00266039"
             id="g2582" />
          <g
             style="stroke-width:0.00266039"
             id="g2594">
            <g
               style="stroke-width:0.00266039"
               clip-path="url(#clipPath2586)"
               id="g2592">
              <g
                 style="stroke-width:0.00266039"
                 transform="translate(294.7998,350.1646)"
                 id="g2590">
                <path
                   d="M 0,0 H -5.21 V -15.953 H 0 c 2.041,0 3.697,1.656 3.697,3.697 v 8.561 C 3.697,-1.654 2.041,0 0,0"
                   style="fill:#dce2e9;fill-opacity:1;fill-rule:nonzero;stroke:none;stroke-width:0.00266039"
                   id="path2588" />
              </g>
            </g>
          </g>
        </g>
        <g
           style="stroke-width:0.00266039"
           id="g2596"
           transform="translate(287.6953,400.8872)">
          <path
             d="m 0,0 c 4.018,1.223 23.425,-6.73 22.263,-10.211 -1.162,-3.48 -9.375,-8.955 -8.711,-10.748 0.664,-1.791 5.848,-2.84 5.058,-5.402 -0.789,-2.563 -19.884,-16.082 -24.478,-14.108 -1.972,0.846 5.315,13.252 4.807,14.526 -0.418,1.05 -9.861,1.785 -8.405,7.287 C -8.01,-13.156 -3.467,-1.055 0,0"
             style="fill:#ffc52f;fill-opacity:1;fill-rule:nonzero;stroke:none;stroke-width:0.00266039"
             id="path2598" />
        </g>
        <g
           style="stroke-width:0.00266039"
           id="g2600">
          <g
             style="stroke-width:0.00266039"
             id="g2602" />
          <g
             style="stroke-width:0.00266039"
             id="g2614">
            <g
               style="stroke-width:0.00266039"
               clip-path="url(#clipPath2606)"
               id="g2612">
              <g
                 style="stroke-width:0.00266039"
                 transform="translate(302.4023,396.8013)"
                 id="g2610">
                <path
                   d="m 0,0 c 3.495,-1.855 5.995,-3.811 5.556,-5.125 -1.162,-3.48 -9.375,-8.955 -8.711,-10.748 0.664,-1.791 5.848,-2.84 5.058,-5.402 -0.715,-2.321 -16.44,-13.625 -22.815,-14.274 -0.014,-0.433 0.087,-0.726 0.337,-0.834 4.594,-1.974 23.689,11.545 24.478,14.108 0.79,2.562 -4.394,3.611 -5.058,5.402 -0.664,1.793 7.549,7.268 8.711,10.748 C 8.075,-4.57 4.485,-2.123 0,0"
                   style="fill:#ffc52f;fill-opacity:1;fill-rule:nonzero;stroke:none;stroke-width:0.00266039"
                   id="path2608" />
              </g>
            </g>
          </g>
        </g>
        <g
           style="stroke-width:0.00266039"
           id="g2616">
          <g
             style="stroke-width:0.00266039"
             id="g2618" />
          <g
             style="stroke-width:0.00266039"
             id="g2630">
            <g
               clip-path="url(#clipPath2622)"
               id="g2628"
               style="opacity:0.5;stroke-width:0.00266039">
              <g
                 style="stroke-width:0.00266039"
                 transform="translate(288.1094,399.8032)"
                 id="g2626">
                <path
                   d="M 0,0 C 1.738,0.68 7.267,-1.225 8.292,-2.25 9.917,-3.875 -5.082,-9.375 -4.5,-6.5 -3.916,-3.625 -1.708,-0.666 0,0"
                   style="fill:#ffc52f;fill-opacity:1;fill-rule:nonzero;stroke:none;stroke-width:0.00266039"
                   id="path2624" />
              </g>
            </g>
          </g>
        </g>
        <g
           style="stroke-width:0.00266039"
           id="g2632">
          <g
             style="stroke-width:0.00266039"
             id="g2634" />
          <g
             style="stroke-width:0.00266039"
             id="g2646">
            <g
               clip-path="url(#clipPath2638)"
               id="g2644"
               style="opacity:0.5;stroke-width:0.00266039">
              <g
                 style="stroke-width:0.00266039"
                 transform="translate(289.1094,374.2271)"
                 id="g2642">
                <path
                   d="M 0,0 C 1.092,0.588 4.894,-0.217 5.653,-0.811 6.858,-1.75 -2.59,-6.602 -2.439,-4.656 -2.289,-2.711 -1.072,-0.58 0,0"
                   style="fill:#ffc52f;fill-opacity:1;fill-rule:nonzero;stroke:none;stroke-width:0.00266039"
                   id="path2640" />
              </g>
            </g>
          </g>
        </g>
      </g>
    </g>
  </g>
</svg>
